# Blender v2.79 (sub 0) OBJ File: 'code_chest.blend'
# www.blender.org
mtllib code_storage.mtl
o body_Cube.005
v 0.950000 0.000000 0.050000
v 0.950000 0.000000 0.950000
v 0.050000 0.000000 0.950000
v 0.050000 0.000000 0.050000
v 0.950000 0.702887 0.050000
v 0.950000 0.702887 0.950000
v 0.050000 0.702887 0.950000
v 0.050000 0.702887 0.050000
vt 0.250000 0.648438
vt 0.250000 0.773438
vt 0.125000 0.773438
vt 0.125000 0.648438
vt 0.375000 0.875000
vt 0.375000 0.773438
vt 0.500000 0.773438
vt 0.500000 0.875000
vt 0.125000 0.875000
vt 0.000000 0.875000
vt 0.000000 0.773438
vt 0.250000 0.875000
vt 0.125000 1.000000
vt 0.250000 1.000000
vn 0.0000 -1.0000 0.0000
vn 0.0000 0.0000 -1.0000
vn -1.0000 -0.0000 -0.0000
vn -0.0000 -0.0000 1.0000
vn 1.0000 0.0000 0.0000
vn 0.0000 1.0000 0.0000
usemtl Material
s off
f 1/1/1 2/2/1 3/3/1 4/4/1
f 5/5/2 1/6/2 4/7/2 8/8/2
f 3/3/3 7/9/3 8/10/3 4/11/3
f 2/2/4 6/12/4 7/9/4 3/3/4
f 1/6/5 5/5/5 6/12/5 2/2/5
f 8/13/6 7/9/6 6/12/6 5/14/6
o screenandkeyboard_Cube.004
v 0.750000 0.197726 0.975000
v 0.750000 0.197726 1.025000
v 0.250000 0.197726 1.025000
v 0.250000 0.197726 0.975000
v 0.750000 0.497726 0.975000
v 0.750000 0.497726 1.025000
v 0.250000 0.497726 1.025000
v 0.250000 0.497726 0.975000
vt 0.359375 0.703125
vt 0.359375 0.695312
vt 0.265625 0.695312
vt 0.265625 0.703125
vt 0.359375 0.765625
vt 0.265625 0.765625
vt 0.265625 0.757812
vt 0.359375 0.757812
vt 0.359375 0.757812
vt 0.367188 0.757812
vt 0.367188 0.703125
vt 0.359375 0.703125
vt 0.265625 0.703125
vt 0.257812 0.757812
vt 0.257812 0.703125
vt 0.460938 0.757812
vt 0.460938 0.703125
vt 0.367188 0.703125
vt 0.367188 0.757812
vn 0.0000 -1.0000 -0.0000
vn 0.0000 1.0000 0.0000
vn 1.0000 0.0000 0.0000
vn 0.0000 0.0000 1.0000
vn -1.0000 -0.0000 -0.0000
vn 0.0000 0.0000 -1.0000
usemtl Material
s off
f 9/15/7 10/16/7 11/17/7 12/18/7
f 13/19/8 16/20/8 15/21/8 14/22/8
f 9/15/9 13/23/9 14/24/9 10/25/9
f 10/26/10 14/22/10 15/21/10 11/27/10
f 11/27/11 15/21/11 16/28/11 12/29/11
f 13/30/12 9/31/12 12/32/12 16/33/12
o top_Cube
v 0.950000 0.872541 0.050000
v 0.950000 0.872541 0.950000
v 0.050000 0.872541 0.950000
v 0.050000 0.872541 0.050000
v 0.950000 0.702887 0.050000
v 0.050000 0.702887 0.050000
v 0.050000 0.702887 0.950000
v 0.950000 0.702887 0.950000
vt 0.750000 1.000000
vt 0.625000 1.000000
vt 0.625000 0.875000
vt 0.750000 0.875000
vt 0.875000 0.851562
vt 0.875000 0.875000
vt 0.750000 0.851562
vt 0.625000 0.851562
vt 0.500000 0.875000
vt 0.500000 0.851562
vt 1.000000 0.851562
vt 1.000000 0.875000
vt 0.625000 0.726562
vt 0.750000 0.726562
vn 0.0000 1.0000 -0.0000
vn 1.0000 -0.0000 0.0000
vn -0.0000 -0.0000 1.0000
vn -1.0000 -0.0000 -0.0000
vn 0.0000 0.0000 -1.0000
vn 0.0000 -1.0000 -0.0000
usemtl Material
s off
f 17/34/13 20/35/13 19/36/13 18/37/13
f 21/38/14 17/39/14 18/37/14 24/40/14
f 24/40/15 18/37/15 19/36/15 23/41/15
f 23/41/16 19/36/16 20/42/16 22/43/16
f 17/39/17 21/38/17 22/44/17 20/45/17
f 23/41/18 22/46/18 21/47/18 24/40/18
o gauge_Cube.001
v 0.600000 0.600000 0.975000
v 0.600000 0.600000 1.025000
v 0.400000 0.600000 1.025000
v 0.400000 0.600000 0.975000
v 0.600000 0.800000 0.975000
v 0.600000 0.800000 1.025000
v 0.400000 0.800000 1.025000
v 0.400000 0.800000 0.975000
vt 0.429688 0.710938
vt 0.429688 0.703125
vt 0.382812 0.703125
vt 0.382812 0.710938
vt 0.429688 0.757812
vt 0.382812 0.757812
vt 0.382812 0.765625
vt 0.429688 0.765625
vt 0.437500 0.757812
vt 0.437500 0.710938
vt 0.429688 0.710938
vt 0.429688 0.757812
vt 0.382812 0.757812
vt 0.382812 0.710938
vt 0.375000 0.757812
vt 0.375000 0.710938
vt 0.437500 0.757812
vt 0.484375 0.757812
vt 0.484375 0.710938
vt 0.437500 0.710938
vn 0.0000 -1.0000 0.0000
vn 0.0000 1.0000 0.0000
vn 1.0000 0.0000 0.0000
vn 0.0000 0.0000 1.0000
vn -1.0000 -0.0000 -0.0000
vn 0.0000 0.0000 -1.0000
usemtl Material
s off
f 25/48/19 26/49/19 27/50/19 28/51/19
f 29/52/20 32/53/20 31/54/20 30/55/20
f 25/48/21 29/52/21 30/56/21 26/57/21
f 26/58/22 30/59/22 31/60/22 27/61/22
f 27/61/23 31/60/23 32/62/23 28/63/23
f 29/64/24 25/65/24 28/66/24 32/67/24
