# Blender v2.79 (sub 0) OBJ File: 'microscope.blend'
# www.blender.org
mtllib microscope.mtl
o plate_Cube
v 0.875000 -0.000000 0.125000
v 0.875000 -0.000000 0.875000
v 0.125000 -0.000000 0.875000
v 0.125000 -0.000000 0.125000
v 0.875000 0.050000 0.125000
v 0.875000 0.050000 0.875000
v 0.125000 0.050000 0.875000
v 0.125000 0.050000 0.125000
vn 0.0000 -1.0000 0.0000
vn 0.0000 1.0000 0.0000
vn 1.0000 -0.0000 0.0000
vn 0.0000 -0.0000 1.0000
vn -1.0000 -0.0000 -0.0000
vn 0.0000 0.0000 -1.0000
usemtl Material
s off
f 2//1 4//1 1//1
f 5//2 7//2 6//2
f 5//3 2//3 1//3
f 6//4 3//4 2//4
f 7//5 4//5 3//5
f 1//6 8//6 5//6
f 2//1 3//1 4//1
f 5//2 8//2 7//2
f 5//3 6//3 2//3
f 6//4 7//4 3//4
f 7//5 8//5 4//5
f 1//6 4//6 8//6
o holder_Cube.002
v 0.575000 0.050000 0.165000
v 0.575000 0.050000 0.315000
v 0.425000 0.050000 0.315000
v 0.425000 0.050000 0.165000
v 0.575000 0.605000 0.165000
v 0.575000 0.750000 0.315000
v 0.425000 0.750000 0.315000
v 0.425000 0.605252 0.165000
v 0.575000 0.600000 0.315000
v 0.425000 0.600000 0.315000
v 0.575000 0.750000 0.675168
v 0.425000 0.750000 0.675168
v 0.575000 0.600000 0.675168
v 0.425000 0.600000 0.675168
vn 0.0000 -1.0000 0.0000
vn 0.0000 -0.0000 1.0000
vn -1.0000 -0.0000 -0.0000
vn 0.0000 0.7196 -0.6944
vn 0.0000 0.0000 -1.0000
vn 1.0000 -0.0000 0.0000
vn 0.0000 1.0000 0.0000
vn 0.0012 0.7190 -0.6950
usemtl Material
s off
f 11//7 9//7 10//7
f 18//8 10//8 17//8
f 12//9 18//9 16//9
f 18//9 15//9 16//9
f 14//10 16//10 15//10
f 12//11 13//11 9//11
f 17//12 9//12 13//12
f 13//12 14//12 17//12
f 18//9 20//9 15//9
f 20//13 14//13 15//13
f 21//8 20//8 22//8
f 14//12 21//12 17//12
f 17//7 22//7 18//7
f 11//7 12//7 9//7
f 18//8 11//8 10//8
f 12//9 11//9 18//9
f 14//14 13//14 16//14
f 12//11 16//11 13//11
f 17//12 10//12 9//12
f 18//9 22//9 20//9
f 20//13 19//13 14//13
f 21//8 19//8 20//8
f 14//12 19//12 21//12
f 17//7 21//7 22//7
o plateholder_Cube.008
v 0.490000 0.069517 0.308911
v 0.490000 0.233920 0.552648
v 0.490000 0.086098 0.297727
v 0.490000 0.250501 0.541464
v 0.510000 0.069517 0.308911
v 0.510000 0.233920 0.552648
v 0.510000 0.086098 0.297727
v 0.510000 0.250501 0.541464
vn -1.0000 0.0000 0.0000
vn 0.0000 0.8290 -0.5592
vn 1.0000 -0.0000 0.0000
vn 0.0000 -0.8290 0.5592
vn 0.0000 -0.5592 -0.8290
vn 0.0000 0.5592 0.8290
usemtl None
s off
f 23//15 26//15 25//15
f 26//16 29//16 25//16
f 30//17 27//17 29//17
f 28//18 23//18 27//18
f 29//19 23//19 25//19
f 26//20 28//20 30//20
f 23//15 24//15 26//15
f 26//16 30//16 29//16
f 30//17 28//17 27//17
f 28//18 24//18 23//18
f 29//19 27//19 23//19
f 26//20 24//20 28//20
o itemholder_Cube.007
v 0.350000 0.234133 0.683090
v 0.350000 0.254133 0.683090
v 0.350000 0.234133 0.383090
v 0.350000 0.254133 0.383090
v 0.650000 0.234133 0.683090
v 0.650000 0.254133 0.683090
v 0.650000 0.234133 0.383090
v 0.650000 0.254133 0.383090
vn -1.0000 0.0000 0.0000
vn -0.0000 0.0000 -1.0000
vn 1.0000 0.0000 0.0000
vn 0.0000 0.0000 1.0000
vn 0.0000 -1.0000 0.0000
vn 0.0000 1.0000 0.0000
usemtl None
s off
f 32//21 33//21 31//21
f 34//22 37//22 33//22
f 38//23 35//23 37//23
f 36//24 31//24 35//24
f 37//25 31//25 33//25
f 34//26 36//26 38//26
f 32//21 34//21 33//21
f 34//22 38//22 37//22
f 38//23 36//23 35//23
f 36//24 32//24 31//24
f 37//25 35//25 31//25
f 34//26 32//26 36//26
o scanner_Cube.004
v 0.461733 0.460000 0.570387
v 0.461733 0.600000 0.570387
v 0.461733 0.460000 0.500387
v 0.461733 0.600000 0.500387
v 0.531733 0.460000 0.570387
v 0.531733 0.600000 0.570387
v 0.531733 0.460000 0.500387
v 0.531733 0.600000 0.500387
vn -1.0000 0.0000 0.0000
vn 0.0000 0.0000 -1.0000
vn 1.0000 0.0000 0.0000
vn 0.0000 0.0000 1.0000
vn 0.0000 -1.0000 0.0000
vn 0.0000 1.0000 0.0000
usemtl None
s off
f 40//27 41//27 39//27
f 42//28 45//28 41//28
f 46//29 43//29 45//29
f 44//30 39//30 43//30
f 45//31 39//31 41//31
f 42//32 44//32 46//32
f 40//27 42//27 41//27
f 42//28 46//28 45//28
f 46//29 44//29 43//29
f 44//30 40//30 39//30
f 45//31 43//31 39//31
f 42//32 40//32 44//32
o sc3_Cube.006
v 0.470115 0.426811 0.600603
v 0.470115 0.526811 0.600603
v 0.470115 0.426811 0.550603
v 0.470115 0.526811 0.550603
v 0.520115 0.426811 0.600603
v 0.520115 0.526811 0.600603
v 0.520115 0.426811 0.550603
v 0.520115 0.526811 0.550603
vn -1.0000 0.0000 0.0000
vn 0.0000 0.0000 -1.0000
vn 1.0000 0.0000 0.0000
vn 0.0000 0.0000 1.0000
vn 0.0000 -1.0000 0.0000
vn 0.0000 1.0000 0.0000
usemtl None
s off
f 48//33 49//33 47//33
f 50//34 53//34 49//34
f 54//35 51//35 53//35
f 52//36 47//36 51//36
f 53//37 47//37 49//37
f 50//38 52//38 54//38
f 48//33 50//33 49//33
f 50//34 54//34 53//34
f 54//35 52//35 51//35
f 52//36 48//36 47//36
f 53//37 51//37 47//37
f 50//38 48//38 52//38
o sc2_Cube.001
v 0.433913 0.426811 0.530531
v 0.433913 0.526811 0.530531
v 0.433913 0.426811 0.480531
v 0.433913 0.526811 0.480531
v 0.483913 0.426811 0.530531
v 0.483913 0.526811 0.530531
v 0.483913 0.426811 0.480531
v 0.483913 0.526811 0.480531
vn -1.0000 0.0000 0.0000
vn 0.0000 0.0000 -1.0000
vn 1.0000 0.0000 0.0000
vn 0.0000 0.0000 1.0000
vn 0.0000 -1.0000 0.0000
vn 0.0000 1.0000 0.0000
usemtl None
s off
f 56//39 57//39 55//39
f 58//40 61//40 57//40
f 62//41 59//41 61//41
f 60//42 55//42 59//42
f 61//43 55//43 57//43
f 58//44 60//44 62//44
f 56//39 58//39 57//39
f 58//40 62//40 61//40
f 62//41 60//41 59//41
f 60//42 56//42 55//42
f 61//43 59//43 55//43
f 58//44 56//44 60//44
o sc1_Cube.005
v 0.506696 0.426811 0.530085
v 0.506696 0.526811 0.530085
v 0.506696 0.426811 0.480085
v 0.506696 0.526811 0.480085
v 0.556695 0.426811 0.530085
v 0.556695 0.526811 0.530085
v 0.556695 0.426811 0.480085
v 0.556695 0.526811 0.480085
vn -1.0000 0.0000 0.0000
vn 0.0000 0.0000 -1.0000
vn 1.0000 0.0000 0.0000
vn 0.0000 0.0000 1.0000
vn 0.0000 -1.0000 0.0000
vn 0.0000 1.0000 0.0000
usemtl None
s off
f 64//45 65//45 63//45
f 66//46 69//46 65//46
f 70//47 67//47 69//47
f 68//48 63//48 67//48
f 69//49 63//49 65//49
f 66//50 68//50 70//50
f 64//45 66//45 65//45
f 66//46 70//46 69//46
f 70//47 68//47 67//47
f 68//48 64//48 63//48
f 69//49 67//49 63//49
f 66//50 64//50 68//50
o screen_Cube.003
v 0.749260 0.557424 0.110330
v 0.749260 0.550353 0.117401
v 0.248760 0.550353 0.117401
v 0.248760 0.557424 0.110330
v 0.749260 0.813679 0.366585
v 0.749260 0.806608 0.373656
v 0.248760 0.806608 0.373656
v 0.248760 0.813679 0.366585
vn 0.0000 -0.7071 -0.7071
vn 0.0000 0.7071 0.7071
vn 1.0000 -0.0000 -0.0000
vn 0.0000 -0.7071 0.7071
vn -1.0000 -0.0000 -0.0000
vn 0.0000 0.7071 -0.7071
usemtl Material
s off
f 72//51 74//51 71//51
f 78//52 76//52 75//52
f 75//53 72//53 71//53
f 76//54 73//54 72//54
f 77//55 74//55 73//55
f 71//56 78//56 75//56
f 72//51 73//51 74//51
f 78//52 77//52 76//52
f 75//53 76//53 72//53
f 76//54 77//54 73//54
f 77//55 78//55 74//55
f 71//56 74//56 78//56
