# Blender v2.79 (sub 0) OBJ File: 'crystal.blend'
# www.blender.org
mtllib test.mtl
o Main_Cone
v 0.102423 -0.000232 0.728276
v 0.082505 0.074100 0.516845
v 0.319756 0.058002 0.728276
v 0.299839 0.132334 0.516845
v -0.020153 0.887215 0.937645
v -0.070919 0.647131 0.733939
v 0.148786 0.709000 0.730601
v 0.166719 0.631485 0.942235
v -0.051253 0.575657 0.944049
v 0.016976 0.067865 0.603916
v 0.033830 0.004965 0.234613
v 0.379198 0.164922 0.603916
v 0.396052 0.102022 0.234613
v -0.181099 1.523745 0.165336
v -0.234417 1.006818 0.053615
v 0.132646 1.106621 0.046383
v 0.112292 1.164931 0.418112
v -0.251241 1.072809 0.418657
v 0.651577 0.075243 0.717729
v 0.668430 0.138143 0.348427
v 1.013799 -0.021814 0.717729
v 1.030653 0.041086 0.348427
v 1.224052 1.495097 0.804107
v 0.936882 1.139275 0.533068
v 1.305287 1.044484 0.526751
v 1.282948 0.978764 0.897128
v 0.921930 1.080273 0.899386
v 0.422662 0.092639 0.765092
v 0.608544 0.219015 0.464922
v 0.747923 0.038288 0.943630
v 0.933805 0.164664 0.643460
v 0.605019 1.532187 1.260695
v 0.561014 1.197778 0.849875
v 0.894241 1.147415 1.026430
v 0.703688 1.017479 1.324429
v 0.377511 1.075940 1.148832
v 0.316993 0.096256 0.387429
v 0.316993 -0.000802 0.025206
v 0.691993 0.096256 0.387429
v 0.691993 -0.000802 0.025206
v 0.502477 1.510023 -0.176515
v 0.317185 1.016619 -0.245496
v 0.697572 1.017383 -0.252822
v 0.693003 1.111138 0.112125
v 0.318014 1.116273 0.112222
v 0.252689 0.115951 0.738424
v 0.252689 0.115951 0.238424
v 0.752689 0.115951 0.738424
v 0.752689 0.115951 0.238424
v 0.500000 2.131355 0.500000
v 0.252945 1.519706 0.240890
v 0.760127 1.523218 0.231718
v 0.754035 1.518025 0.734088
v 0.254050 1.524604 0.735985
vt 0.608135 0.738028
vt 0.608135 0.789178
vt 0.657896 0.793865
vt 0.657896 0.742716
vt 0.910393 0.052105
vt 0.884238 0.000614
vt 0.856679 0.051413
vt 0.856108 0.641282
vt 0.824996 0.697546
vt 0.803065 0.641488
vt 0.801836 0.636286
vt 0.774861 0.705777
vt 0.748884 0.636818
vt 0.331945 0.403103
vt 0.384152 0.401505
vt 0.357014 0.333370
vt 0.748883 0.496540
vt 0.801836 0.496594
vt 0.803370 0.497432
vt 0.856108 0.496540
vt 0.857439 0.191708
vt 0.910393 0.191719
vt 0.384152 0.546242
vt 0.331417 0.547319
vt 0.973335 0.741529
vt 0.888175 0.737643
vt 0.888175 0.824649
vt 0.973335 0.828535
vt 0.236746 0.826389
vt 0.319904 0.916072
vt 0.319904 0.793232
vt 0.978207 0.950903
vt 0.885561 0.908033
vt 0.978207 0.862347
vt 0.863209 0.456204
vt 0.944417 0.383373
vt 0.944417 0.490777
vt 0.462213 0.797904
vt 0.381520 0.831234
vt 0.462213 0.922372
vt 0.568372 0.250519
vt 0.656628 0.250605
vt 0.656628 0.494196
vt 0.568373 0.495311
vt 0.566993 0.742292
vt 0.478836 0.740969
vt 0.478472 0.500423
vt 0.566993 0.502912
vt 0.122476 0.577832
vt 0.210732 0.577848
vt 0.210732 0.333756
vt 0.121208 0.333411
vt 0.236746 0.671406
vt 0.477243 0.670575
vt 0.477243 0.583270
vt 0.237640 0.583244
vt 0.996782 0.004501
vt 0.911622 0.000614
vt 0.911622 0.087620
vt 0.996782 0.091507
vt 0.757067 0.856553
vt 0.659124 0.901139
vt 0.757067 0.946082
vt 0.803901 0.830441
vt 0.886946 0.737643
vt 0.886946 0.861118
vt 0.939048 0.496540
vt 0.939048 0.618847
vt 0.857337 0.529906
vt 0.571647 0.929763
vt 0.652563 0.962596
vt 0.652563 0.862425
vt 0.656628 0.245557
vt 0.568372 0.245470
vt 0.568373 0.001613
vt 0.656628 0.000614
vt 0.659489 0.497173
vt 0.747654 0.496540
vt 0.747654 0.736390
vt 0.659124 0.736414
vt 0.241933 0.578202
vt 0.330189 0.578219
vt 0.330189 0.334278
vt 0.240665 0.333370
vt 0.746019 0.487152
vt 0.746019 0.246785
vt 0.658711 0.248455
vt 0.657857 0.488044
vt 0.088871 0.914137
vt 0.000614 0.914137
vt 0.000614 0.999386
vt 0.088871 0.999386
vt 0.570418 0.862425
vt 0.478472 0.907081
vt 0.570418 0.951954
vt 0.108442 0.912908
vt 0.000614 0.866665
vt 0.108442 0.824229
vt 0.861980 0.490777
vt 0.747248 0.444588
vt 0.861980 0.402517
vt 0.857337 0.704119
vt 0.939098 0.734990
vt 0.939098 0.620076
vt 0.209464 0.819361
vt 0.121208 0.819273
vt 0.121210 0.580023
vt 0.209464 0.579077
vt 0.567143 0.249290
vt 0.478887 0.249017
vt 0.478472 0.000614
vt 0.567143 0.001805
vt 0.569639 0.736783
vt 0.657896 0.736800
vt 0.657896 0.497575
vt 0.568372 0.496540
vt 0.477243 0.582015
vt 0.477243 0.333370
vt 0.389852 0.334083
vt 0.388987 0.581862
vt 0.836866 0.158179
vt 0.748609 0.158179
vt 0.748609 0.243428
vt 0.836866 0.243428
vt 0.465266 0.796676
vt 0.465266 0.672635
vt 0.381520 0.765034
vt 0.121208 0.903991
vt 0.203727 0.820589
vt 0.203727 0.936467
vt 0.803901 0.928335
vt 0.884332 0.862347
vt 0.884332 0.964681
vt 0.938632 0.246785
vt 0.858501 0.281670
vt 0.938632 0.364037
vt 0.088871 0.823000
vt 0.000614 0.822912
vt 0.000616 0.584059
vt 0.088871 0.582939
vt 0.567143 0.499194
vt 0.478887 0.498921
vt 0.478472 0.250519
vt 0.567143 0.251709
vt 0.659124 0.240245
vt 0.747381 0.240261
vt 0.747381 0.000811
vt 0.657857 0.000614
vt 0.088870 0.581710
vt 0.088870 0.333065
vt 0.001479 0.333778
vt 0.000614 0.581558
vt 0.596147 0.743521
vt 0.478472 0.743521
vt 0.478472 0.861196
vt 0.596147 0.861196
vt 0.380292 0.672635
vt 0.236746 0.731775
vt 0.380292 0.792003
vt 0.747248 0.357988
vt 0.857273 0.246785
vt 0.857273 0.401289
vt 0.802673 0.855325
vt 0.659124 0.793643
vt 0.802673 0.737643
vt 0.855450 0.000614
vt 0.748609 0.047127
vt 0.855450 0.156950
vt 0.477243 0.332141
vt 0.359568 0.332027
vt 0.359570 0.002049
vt 0.477243 0.000614
vt 0.239436 0.332182
vt 0.121762 0.331818
vt 0.121208 0.000614
vt 0.239436 0.002202
vt 0.002304 0.331815
vt 0.119979 0.331836
vt 0.119979 0.001463
vt 0.000614 0.000614
vt 0.358340 0.332141
vt 0.358340 0.000614
vt 0.241817 0.001565
vt 0.240665 0.331938
vn 0.2432 -0.9077 -0.3420
vn -0.1964 0.6582 -0.7268
vn 0.7974 0.5853 0.1468
vn 0.0031 0.0202 0.9998
vn -0.9868 0.1011 0.1268
vn 0.0898 -0.3277 0.9405
vn 0.9672 0.2540 0.0046
vn -0.0969 0.3267 -0.9402
vn -0.9660 -0.2587 0.0012
vn 0.2549 -0.9513 0.1736
vn -0.0785 0.2183 -0.9727
vn 0.7908 0.6098 -0.0523
vn -0.1256 0.5007 0.8565
vn -0.9909 0.1166 -0.0668
vn -0.0437 0.1705 0.9844
vn 0.9664 0.2569 0.0065
vn 0.0365 -0.1715 -0.9845
vn -0.9661 -0.2581 0.0010
vn -0.2549 -0.9513 -0.1736
vn 0.1237 0.5362 -0.8350
vn 0.9884 0.1276 0.0823
vn 0.0577 0.1834 0.9813
vn -0.7997 0.5970 0.0635
vn -0.0425 -0.1659 0.9852
vn 0.9648 -0.2628 0.0054
vn 0.0358 0.1687 -0.9850
vn -0.9658 0.2592 0.0012
vn 0.0444 -0.9303 -0.3641
vn 0.4205 0.6811 -0.5994
vn 0.7747 0.2218 0.5921
vn -0.4713 0.0188 0.8818
vn -0.8199 0.4839 -0.3061
vn -0.4941 -0.3350 0.8022
vn 0.8645 -0.1499 0.4798
vn 0.4878 0.3369 -0.8053
vn -0.8679 0.1451 -0.4750
vn 0.0000 -0.9659 0.2588
vn -0.0193 0.1456 -0.9892
vn 0.9217 0.3783 -0.0856
vn 0.0083 0.5888 0.8082
vn -0.9270 0.3619 -0.0987
vn 0.0019 0.2611 0.9653
vn 1.0000 -0.0014 0.0067
vn -0.0091 -0.2602 -0.9655
vn -1.0000 0.0008 0.0009
vn 0.0000 -1.0000 0.0000
vn -0.0193 0.3966 -0.9178
vn 0.9217 0.3876 0.0152
vn 0.0083 0.3596 0.9331
vn -0.9270 0.3751 -0.0016
vn 0.0019 0.0024 1.0000
vn 1.0000 -0.0031 0.0061
vn -0.0091 -0.0015 -1.0000
vn -1.0000 0.0006 0.0011
usemtl Material
s off
f 2/1/1 4/2/1 3/3/1 1/4/1
f 6/5/2 5/6/2 7/7/2
f 7/8/3 5/9/3 8/10/3
f 8/11/4 5/12/4 9/13/4
f 6/14/5 9/15/5 5/16/5
f 1/17/6 3/18/6 8/11/6 9/13/6
f 3/19/7 4/20/7 7/8/7 8/10/7
f 4/21/8 2/22/8 6/5/8 7/7/8
f 1/23/9 9/15/9 6/14/9 2/24/9
f 11/25/10 13/26/10 12/27/10 10/28/10
f 15/29/11 14/30/11 16/31/11
f 16/32/12 14/33/12 17/34/12
f 17/35/13 14/36/13 18/37/13
f 15/38/14 18/39/14 14/40/14
f 10/41/15 12/42/15 17/43/15 18/44/15
f 12/45/16 13/46/16 16/47/16 17/48/16
f 13/49/17 11/50/17 15/51/17 16/52/17
f 10/53/18 18/54/18 15/55/18 11/56/18
f 20/57/19 22/58/19 21/59/19 19/60/19
f 24/61/20 23/62/20 25/63/20
f 25/64/21 23/65/21 26/66/21
f 26/67/22 23/68/22 27/69/22
f 24/70/23 27/71/23 23/72/23
f 19/73/24 21/74/24 26/75/24 27/76/24
f 21/77/25 22/78/25 25/79/25 26/80/25
f 22/81/26 20/82/26 24/83/26 25/84/26
f 19/85/27 27/86/27 24/87/27 20/88/27
f 29/89/28 31/90/28 30/91/28 28/92/28
f 33/93/29 32/94/29 34/95/29
f 34/96/30 32/97/30 35/98/30
f 35/99/31 32/100/31 36/101/31
f 33/102/32 36/103/32 32/104/32
f 28/105/33 30/106/33 35/107/33 36/108/33
f 30/109/34 31/110/34 34/111/34 35/112/34
f 31/113/35 29/114/35 33/115/35 34/116/35
f 28/117/36 36/118/36 33/119/36 29/120/36
f 38/121/37 40/122/37 39/123/37 37/124/37
f 42/125/38 41/126/38 43/127/38
f 43/128/39 41/129/39 44/130/39
f 44/131/40 41/132/40 45/133/40
f 42/134/41 45/135/41 41/136/41
f 37/137/42 39/138/42 44/139/42 45/140/42
f 39/141/43 40/142/43 43/143/43 44/144/43
f 40/145/44 38/146/44 42/147/44 43/148/44
f 37/149/45 45/150/45 42/151/45 38/152/45
f 47/153/46 49/154/46 48/155/46 46/156/46
f 51/157/47 50/158/47 52/159/47
f 52/160/48 50/161/48 53/162/48
f 53/163/49 50/164/49 54/165/49
f 51/166/50 54/167/50 50/168/50
f 46/169/51 48/170/51 53/171/51 54/172/51
f 48/173/52 49/174/52 52/175/52 53/176/52
f 49/177/53 47/178/53 51/179/53 52/180/53
f 46/181/54 54/182/54 51/183/54 47/184/54
