# Blender v2.78 (sub 0) OBJ File: 'glove-singlemesh.blend'
# www.blender.org
mtllib glove.mtl
o fingerb_Cube.003_Cube.006
v 0.650000 0.225000 0.490000
v 0.650000 0.225000 1.090000
v 0.350000 0.225000 1.090000
v 0.350000 0.225000 0.490000
v 0.650000 0.525000 0.490000
v 0.350000 0.525000 0.490000
v 0.350000 0.525000 1.090000
v 0.650000 0.525000 1.090000
v 0.577060 0.480664 0.629585
v 0.577060 0.576694 0.601686
v 0.577060 0.520896 0.409627
v 0.577060 0.424866 0.437526
v 0.677060 0.520896 0.409627
v 0.677060 0.424866 0.437526
v 0.677060 0.576694 0.601686
v 0.677060 0.480664 0.629585
v 0.445301 0.488248 0.633247
v 0.445301 0.587682 0.622621
v 0.445301 0.566429 0.423753
v 0.445301 0.466996 0.434380
v 0.545301 0.566429 0.423753
v 0.545301 0.466996 0.434380
v 0.545301 0.587682 0.622621
v 0.545301 0.488248 0.633247
v 0.313823 0.480664 0.659979
v 0.313823 0.576694 0.632080
v 0.313823 0.520896 0.440021
v 0.313823 0.424866 0.467920
v 0.413823 0.520896 0.440021
v 0.413823 0.424866 0.467920
v 0.413823 0.576694 0.632080
v 0.413823 0.480664 0.659979
v 0.440626 0.164473 0.580908
v 0.440626 0.262140 0.602382
v 0.440626 0.305087 0.407047
v 0.440626 0.207420 0.385574
v 0.540626 0.305087 0.407047
v 0.540626 0.207420 0.385574
v 0.540626 0.262140 0.602382
v 0.540626 0.164473 0.580908
vt 0.7506 0.6657
vt 0.8336 0.6657
vt 0.8336 0.4996
vt 0.7506 0.4996
vt 0.9982 0.0004
vt 0.9184 0.0004
vt 0.9184 0.0835
vt 0.9982 0.0835
vt 0.7506 0.6666
vt 0.8336 0.6666
vt 0.8336 0.8327
vt 0.7506 0.8327
vt 0.6657 0.9167
vt 0.6657 0.9964
vt 0.5827 0.9964
vt 0.5827 0.9167
vt 0.9176 0.8261
vt 0.8345 0.8261
vt 0.8345 0.6666
vt 0.9176 0.6666
vt 0.9176 0.1674
vt 0.8345 0.1674
vt 0.8345 0.3269
vt 0.9176 0.3269
vt 0.5827 0.9158
vt 0.6657 0.9158
vt 0.6657 0.7497
vt 0.5827 0.7497
vt 0.4184 0.9157
vt 0.4184 0.9983
vt 0.5014 0.9983
vt 0.5014 0.9157
vt 0.6666 0.7497
vt 0.7497 0.7497
vt 0.7497 0.9158
vt 0.6666 0.9158
vt 0.9110 0.8336
vt 0.9935 0.8336
vt 0.9935 0.9167
vt 0.9110 0.9167
vt 0.9176 0.1656
vt 0.8345 0.1656
vt 0.8345 0.0004
vt 0.9176 0.0004
vt 0.5014 0.7497
vt 0.4184 0.7497
vt 0.4184 0.9148
vt 0.5014 0.9148
vt 0.8336 0.0004
vt 0.7506 0.0004
vt 0.7506 0.1665
vt 0.8336 0.1665
vt 0.9184 0.1674
vt 0.9982 0.1674
vt 0.9982 0.0844
vt 0.9184 0.0844
vt 0.8336 0.3335
vt 0.7506 0.3335
vt 0.7506 0.1674
vt 0.8336 0.1674
vt 0.2505 0.9964
vt 0.2505 0.9167
vt 0.3335 0.9167
vt 0.3335 0.9964
vt 0.9176 0.6591
vt 0.8345 0.6591
vt 0.8345 0.4996
vt 0.9176 0.4996
vt 0.9101 0.9167
vt 0.9101 0.8336
vt 0.7506 0.8336
vt 0.7506 0.9167
vt 0.2505 0.9158
vt 0.3335 0.9158
vt 0.3335 0.7497
vt 0.2505 0.7497
vt 0.9996 0.3344
vt 0.9184 0.3344
vt 0.9184 0.4175
vt 0.9996 0.4175
vt 0.3344 0.7497
vt 0.4175 0.7497
vt 0.4175 0.9158
vt 0.3344 0.9158
vt 0.6666 0.9978
vt 0.6666 0.9167
vt 0.7497 0.9167
vt 0.7497 0.9978
vt 0.8345 0.3344
vt 0.9176 0.3344
vt 0.9176 0.4967
vt 0.8345 0.4967
vt 0.7506 0.4967
vt 0.8336 0.4967
vt 0.8336 0.3344
vt 0.7506 0.3344
vt 0.7497 0.0004
vt 0.7497 0.4988
vt 0.5005 0.4988
vt 0.5005 0.0004
vt 0.2496 0.0004
vt 0.0004 0.0004
vt 0.0004 0.4988
vt 0.2496 0.4988
vt 0.0004 0.4996
vt 0.2496 0.4996
vt 0.2496 0.9980
vt 0.0004 0.9980
vt 0.7497 0.7488
vt 0.5005 0.7488
vt 0.5005 0.4996
vt 0.7497 0.4996
vt 0.4996 0.0004
vt 0.2505 0.0004
vt 0.2505 0.4988
vt 0.4996 0.4988
vt 0.4996 0.7488
vt 0.4996 0.4996
vt 0.2505 0.4996
vt 0.2505 0.7488
vn -1.0000 0.0000 0.0000
vn 0.0000 -0.2790 -0.9603
vn 1.0000 -0.0000 0.0000
vn 0.0000 0.2790 0.9603
vn 0.0000 -0.9603 0.2790
vn 0.0000 0.9603 -0.2790
vn 0.0000 -0.1063 -0.9943
vn 0.0000 0.1063 0.9943
vn 0.0000 -0.9943 0.1063
vn 0.0000 0.9943 -0.1063
vn 0.0000 0.2147 -0.9767
vn 0.0000 -0.2147 0.9767
vn 0.0000 -0.9767 -0.2147
vn 0.0000 0.9767 0.2147
vn 0.0000 -1.0000 -0.0000
vn 0.0000 1.0000 0.0000
vn 0.0000 0.0000 1.0000
vn 0.0000 0.0000 -1.0000
usemtl Material.001
s off
f 9/1/1 10/2/1 11/3/1 12/4/1
f 12/5/2 11/6/2 13/7/2 14/8/2
f 14/9/3 13/10/3 15/11/3 16/12/3
f 16/13/4 15/14/4 10/15/4 9/16/4
f 12/17/5 14/18/5 16/19/5 9/20/5
f 13/21/6 11/22/6 10/23/6 15/24/6
f 17/25/1 18/26/1 19/27/1 20/28/1
f 20/29/7 19/30/7 21/31/7 22/32/7
f 22/33/3 21/34/3 23/35/3 24/36/3
f 24/37/8 23/38/8 18/39/8 17/40/8
f 20/41/9 22/42/9 24/43/9 17/44/9
f 21/45/10 19/46/10 18/47/10 23/48/10
f 25/49/1 26/50/1 27/51/1 28/52/1
f 28/53/2 27/54/2 29/55/2 30/56/2
f 30/57/3 29/58/3 31/59/3 32/60/3
f 32/61/4 31/62/4 26/63/4 25/64/4
f 28/65/5 30/66/5 32/67/5 25/68/5
f 29/69/6 27/70/6 26/71/6 31/72/6
f 33/73/1 34/74/1 35/75/1 36/76/1
f 36/77/11 35/78/11 37/79/11 38/80/11
f 38/81/3 37/82/3 39/83/3 40/84/3
f 40/85/12 39/86/12 34/87/12 33/88/12
f 36/89/13 38/90/13 40/91/13 33/92/13
f 37/93/14 35/94/14 34/95/14 39/96/14
s 1
f 1/97/15 2/98/15 3/99/15 4/100/15
f 5/101/16 6/102/16 7/103/16 8/104/16
f 1/105/3 5/106/3 8/107/3 2/108/3
f 2/109/17 8/110/17 7/111/17 3/112/17
f 3/113/1 7/114/1 6/115/1 4/116/1
f 5/117/18 1/118/18 4/119/18 6/120/18
