# Blender v2.78 (sub 0) OBJ File: 'crystal.blend'
# www.blender.org
mtllib crystal.mtl
o Main_Cone
v 0.102423 -0.000232 0.728276
v 0.082505 0.074100 0.516845
v 0.319756 0.058002 0.728276
v 0.299839 0.132334 0.516845
v -0.020153 0.887215 0.937645
v -0.070919 0.647131 0.733939
v 0.148786 0.709000 0.730601
v 0.166719 0.631485 0.942235
v -0.051253 0.575657 0.944049
v 0.016976 0.067865 0.603916
v 0.033830 0.004965 0.234613
v 0.379198 0.164922 0.603916
v 0.396052 0.102022 0.234613
v -0.181099 1.523745 0.165336
v -0.234417 1.006818 0.053615
v 0.132646 1.106621 0.046383
v 0.112292 1.164931 0.418112
v -0.251241 1.072809 0.418657
v 0.651577 0.075243 0.717729
v 0.668430 0.138143 0.348427
v 1.013799 -0.021814 0.717729
v 1.030653 0.041086 0.348427
v 1.224052 1.495097 0.804107
v 0.936882 1.139275 0.533068
v 1.305287 1.044484 0.526751
v 1.282948 0.978764 0.897128
v 0.921930 1.080273 0.899386
v 0.299159 0.018568 0.956105
v 0.299159 0.115625 0.593883
v 0.674159 0.018568 0.956105
v 0.674159 0.115625 0.593883
v 0.484642 1.524898 1.174599
v 0.299351 1.132089 0.868158
v 0.679737 1.136413 0.862196
v 0.675169 1.035134 1.225126
v 0.300180 1.039532 1.227778
v 0.316993 0.096256 0.387429
v 0.316993 -0.000802 0.025206
v 0.691993 0.096256 0.387429
v 0.691993 -0.000802 0.025206
v 0.502477 1.510023 -0.176515
v 0.317185 1.016619 -0.245496
v 0.697572 1.017383 -0.252822
v 0.693003 1.111138 0.112125
v 0.318014 1.116273 0.112222
v 0.252689 0.115951 0.738424
v 0.252689 0.115951 0.238424
v 0.752689 0.115951 0.738424
v 0.752689 0.115951 0.238424
v 0.500000 2.131355 0.500000
v 0.252945 1.519706 0.240890
v 0.760127 1.523218 0.231718
v 0.754035 1.518025 0.734088
v 0.254050 1.524604 0.735985
vt 0.6081 0.7380
vt 0.6081 0.7892
vt 0.6579 0.7939
vt 0.6579 0.7427
vt 0.9104 0.0521
vt 0.8842 0.0006
vt 0.8567 0.0514
vt 0.8561 0.6413
vt 0.8250 0.6975
vt 0.8031 0.6415
vt 0.8018 0.6363
vt 0.7749 0.7058
vt 0.7489 0.6368
vt 0.3319 0.4031
vt 0.3842 0.4015
vt 0.3570 0.3334
vt 0.7489 0.4965
vt 0.8018 0.4966
vt 0.8034 0.4974
vt 0.8561 0.4965
vt 0.8574 0.1917
vt 0.9104 0.1917
vt 0.3842 0.5462
vt 0.3314 0.5473
vt 0.9733 0.7415
vt 0.8882 0.7376
vt 0.8882 0.8246
vt 0.9733 0.8285
vt 0.2367 0.8264
vt 0.3199 0.9161
vt 0.3199 0.7932
vt 0.9782 0.9509
vt 0.8856 0.9080
vt 0.9782 0.8623
vt 0.8632 0.4562
vt 0.9444 0.3834
vt 0.9444 0.4908
vt 0.4622 0.7979
vt 0.3815 0.8312
vt 0.4622 0.9224
vt 0.5684 0.2505
vt 0.6566 0.2506
vt 0.6566 0.4942
vt 0.5684 0.4953
vt 0.5670 0.7423
vt 0.4788 0.7410
vt 0.4785 0.5004
vt 0.5670 0.5029
vt 0.1225 0.5778
vt 0.2107 0.5778
vt 0.2107 0.3338
vt 0.1212 0.3334
vt 0.2367 0.6714
vt 0.4772 0.6706
vt 0.4772 0.5833
vt 0.2376 0.5832
vt 0.9968 0.0045
vt 0.9116 0.0006
vt 0.9116 0.0876
vt 0.9968 0.0915
vt 0.7571 0.8566
vt 0.6591 0.9011
vt 0.7571 0.9461
vt 0.8039 0.8304
vt 0.8869 0.7376
vt 0.8869 0.8611
vt 0.9390 0.4965
vt 0.9390 0.6188
vt 0.8573 0.5299
vt 0.5716 0.9298
vt 0.6526 0.9626
vt 0.6526 0.8624
vt 0.6566 0.2456
vt 0.5684 0.2455
vt 0.5684 0.0016
vt 0.6566 0.0006
vt 0.6595 0.4972
vt 0.7477 0.4965
vt 0.7477 0.7364
vt 0.6591 0.7364
vt 0.2419 0.5782
vt 0.3302 0.5782
vt 0.3302 0.3343
vt 0.2407 0.3334
vt 0.7460 0.4872
vt 0.7460 0.2468
vt 0.6587 0.2485
vt 0.6579 0.4880
vt 0.0889 0.9141
vt 0.0006 0.9141
vt 0.0006 0.9994
vt 0.0889 0.9994
vt 0.5704 0.8624
vt 0.4785 0.9071
vt 0.5704 0.9520
vt 0.1084 0.9129
vt 0.0006 0.8667
vt 0.1084 0.8242
vt 0.8620 0.4908
vt 0.7472 0.4446
vt 0.8620 0.4025
vt 0.8573 0.7041
vt 0.9391 0.7350
vt 0.9391 0.6201
vt 0.2095 0.8194
vt 0.1212 0.8193
vt 0.1212 0.5800
vt 0.2095 0.5791
vt 0.5671 0.2493
vt 0.4789 0.2490
vt 0.4785 0.0006
vt 0.5671 0.0018
vt 0.5696 0.7368
vt 0.6579 0.7368
vt 0.6579 0.4976
vt 0.5684 0.4965
vt 0.4772 0.5820
vt 0.4772 0.3334
vt 0.3899 0.3341
vt 0.3890 0.5819
vt 0.8369 0.1582
vt 0.7486 0.1582
vt 0.7486 0.2434
vt 0.8369 0.2434
vt 0.4653 0.7967
vt 0.4653 0.6726
vt 0.3815 0.7650
vt 0.1212 0.9040
vt 0.2037 0.8206
vt 0.2037 0.9365
vt 0.8039 0.9283
vt 0.8843 0.8623
vt 0.8843 0.9647
vt 0.9386 0.2468
vt 0.8585 0.2817
vt 0.9386 0.3640
vt 0.0889 0.8230
vt 0.0006 0.8229
vt 0.0006 0.5841
vt 0.0889 0.5829
vt 0.5671 0.4992
vt 0.4789 0.4989
vt 0.4785 0.2505
vt 0.5671 0.2517
vt 0.6591 0.2402
vt 0.7474 0.2403
vt 0.7474 0.0008
vt 0.6579 0.0006
vt 0.0889 0.5817
vt 0.0889 0.3331
vt 0.0015 0.3338
vt 0.0006 0.5816
vt 0.5961 0.7435
vt 0.4785 0.7435
vt 0.4785 0.8612
vt 0.5961 0.8612
vt 0.3803 0.6726
vt 0.2367 0.7318
vt 0.3803 0.7920
vt 0.7472 0.3580
vt 0.8573 0.2468
vt 0.8573 0.4013
vt 0.8027 0.8553
vt 0.6591 0.7936
vt 0.8027 0.7376
vt 0.8555 0.0006
vt 0.7486 0.0471
vt 0.8555 0.1570
vt 0.4772 0.3321
vt 0.3596 0.3320
vt 0.3596 0.0020
vt 0.4772 0.0006
vt 0.2394 0.3322
vt 0.1218 0.3318
vt 0.1212 0.0006
vt 0.2394 0.0022
vt 0.0023 0.3318
vt 0.1200 0.3318
vt 0.1200 0.0015
vt 0.0006 0.0006
vt 0.3583 0.3321
vt 0.3583 0.0006
vt 0.2418 0.0016
vt 0.2407 0.3319
vn 0.2432 -0.9077 -0.3420
vn -0.1964 0.6582 -0.7268
vn 0.7974 0.5853 0.1468
vn 0.0031 0.0202 0.9998
vn -0.9868 0.1011 0.1268
vn 0.0898 -0.3277 0.9405
vn 0.9672 0.2540 0.0046
vn -0.0969 0.3267 -0.9402
vn -0.9660 -0.2587 0.0012
vn 0.2549 -0.9513 0.1736
vn -0.0785 0.2183 -0.9727
vn 0.7908 0.6098 -0.0523
vn -0.1256 0.5007 0.8565
vn -0.9909 0.1166 -0.0668
vn -0.0437 0.1705 0.9844
vn 0.9664 0.2569 0.0065
vn 0.0365 -0.1715 -0.9845
vn -0.9661 -0.2581 0.0010
vn -0.2549 -0.9513 -0.1736
vn 0.1237 0.5362 -0.8350
vn 0.9884 0.1276 0.0823
vn 0.0577 0.1834 0.9813
vn -0.7997 0.5970 0.0635
vn -0.0425 -0.1659 0.9852
vn 0.9648 -0.2628 0.0054
vn 0.0358 0.1687 -0.9850
vn -0.9658 0.2592 0.0012
vn 0.0000 -0.9659 -0.2588
vn -0.0193 0.6206 -0.7839
vn 0.9217 0.3704 0.1150
vn 0.0083 0.1058 0.9944
vn -0.9270 0.3628 0.0955
vn 0.0019 -0.2565 0.9665
vn 1.0000 -0.0046 0.0051
vn -0.0091 0.2574 -0.9663
vn -1.0000 0.0003 0.0012
vn 0.0000 -0.9659 0.2588
vn -0.0193 0.1456 -0.9892
vn 0.9217 0.3783 -0.0856
vn 0.0083 0.5888 0.8082
vn -0.9270 0.3619 -0.0987
vn 0.0019 0.2611 0.9653
vn 1.0000 -0.0014 0.0067
vn -0.0091 -0.2602 -0.9655
vn -1.0000 0.0008 0.0009
vn 0.0000 -1.0000 0.0000
vn -0.0193 0.3966 -0.9178
vn 0.9217 0.3876 0.0152
vn 0.0083 0.3596 0.9331
vn -0.9270 0.3751 -0.0016
vn 0.0019 0.0024 1.0000
vn 1.0000 -0.0031 0.0061
vn -0.0091 -0.0015 -1.0000
vn -1.0000 0.0006 0.0011
usemtl Material
f 2/1/1 4/2/1 3/3/1 1/4/1
f 6/5/2 5/6/2 7/7/2
f 7/8/3 5/9/3 8/10/3
f 8/11/4 5/12/4 9/13/4
f 6/14/5 9/15/5 5/16/5
f 1/17/6 3/18/6 8/11/6 9/13/6
f 3/19/7 4/20/7 7/8/7 8/10/7
f 4/21/8 2/22/8 6/5/8 7/7/8
f 1/23/9 9/15/9 6/14/9 2/24/9
f 11/25/10 13/26/10 12/27/10 10/28/10
f 15/29/11 14/30/11 16/31/11
f 16/32/12 14/33/12 17/34/12
f 17/35/13 14/36/13 18/37/13
f 15/38/14 18/39/14 14/40/14
f 10/41/15 12/42/15 17/43/15 18/44/15
f 12/45/16 13/46/16 16/47/16 17/48/16
f 13/49/17 11/50/17 15/51/17 16/52/17
f 10/53/18 18/54/18 15/55/18 11/56/18
f 20/57/19 22/58/19 21/59/19 19/60/19
f 24/61/20 23/62/20 25/63/20
f 25/64/21 23/65/21 26/66/21
f 26/67/22 23/68/22 27/69/22
f 24/70/23 27/71/23 23/72/23
f 19/73/24 21/74/24 26/75/24 27/76/24
f 21/77/25 22/78/25 25/79/25 26/80/25
f 22/81/26 20/82/26 24/83/26 25/84/26
f 19/85/27 27/86/27 24/87/27 20/88/27
f 29/89/28 31/90/28 30/91/28 28/92/28
f 33/93/29 32/94/29 34/95/29
f 34/96/30 32/97/30 35/98/30
f 35/99/31 32/100/31 36/101/31
f 33/102/32 36/103/32 32/104/32
f 28/105/33 30/106/33 35/107/33 36/108/33
f 30/109/34 31/110/34 34/111/34 35/112/34
f 31/113/35 29/114/35 33/115/35 34/116/35
f 28/117/36 36/118/36 33/119/36 29/120/36
f 38/121/37 40/122/37 39/123/37 37/124/37
f 42/125/38 41/126/38 43/127/38
f 43/128/39 41/129/39 44/130/39
f 44/131/40 41/132/40 45/133/40
f 42/134/41 45/135/41 41/136/41
f 37/137/42 39/138/42 44/139/42 45/140/42
f 39/141/43 40/142/43 43/143/43 44/144/43
f 40/145/44 38/146/44 42/147/44 43/148/44
f 37/149/45 45/150/45 42/151/45 38/152/45
f 47/153/46 49/154/46 48/155/46 46/156/46
f 51/157/47 50/158/47 52/159/47
f 52/160/48 50/161/48 53/162/48
f 53/163/49 50/164/49 54/165/49
f 51/166/50 54/167/50 50/168/50
f 46/169/51 48/170/51 53/171/51 54/172/51
f 48/173/52 49/174/52 52/175/52 53/176/52
f 49/177/53 47/178/53 51/179/53 52/180/53
f 46/181/54 54/182/54 51/183/54 47/184/54
