# Blender v2.78 (sub 0) OBJ File: 'translation_desk.blend'
# www.blender.org
mtllib translation_desk.mtl
o Cube_Cube.012
v 0.649764 1.110539 0.182147
v 0.638624 1.110539 0.302771
v 0.701203 0.939974 0.247873
v 0.685957 1.279491 0.254165
v 0.754984 1.110538 0.178049
v 0.754984 1.110538 0.302771
vn -0.9440 -0.3183 -0.0872
vn -0.0000 -0.3064 0.9519
vn 0.9537 -0.3007 0.0000
vn -0.0362 -0.3688 -0.9288
vn -0.0357 0.3983 -0.9165
vn 0.9257 0.3782 0.0000
vn 0.0000 0.2765 0.9610
vn -0.9655 0.2448 -0.0892
usemtl None
s off
f 2//1 1//1 3//1
f 2//2 3//2 6//2
f 5//3 6//3 3//3
f 5//4 3//4 1//4
f 1//5 4//5 5//5
f 6//6 5//6 4//6
f 2//7 6//7 4//7
f 2//8 4//8 1//8
o screen_Cube.004
v 0.398604 0.700378 0.300000
v 0.398604 0.700378 0.700000
v 0.098604 0.700378 0.700000
v 0.098604 0.700378 0.300000
v 0.398604 0.715378 0.300000
v 0.398604 0.715378 0.700000
v 0.098604 0.715378 0.700000
v 0.098604 0.715378 0.300000
vn 0.0000 -1.0000 0.0000
vn 0.0000 1.0000 0.0000
vn 1.0000 0.0000 0.0000
vn -0.0000 -0.0000 1.0000
vn -1.0000 -0.0000 -0.0000
vn 0.0000 0.0000 -1.0000
usemtl Material
s off
f 7//9 8//9 9//9 10//9
f 11//10 14//10 13//10 12//10
f 7//11 11//11 12//11 8//11
f 8//12 12//12 13//12 9//12
f 9//13 13//13 14//13 10//13
f 11//14 7//14 10//14 14//14
o trigger4_Cube.010
v 0.393003 0.700000 0.120586
v 0.393003 0.700000 0.220586
v 0.343003 0.700000 0.220586
v 0.343003 0.700000 0.120586
v 0.393003 0.720000 0.120586
v 0.393003 0.720000 0.220586
v 0.343003 0.720000 0.220586
v 0.343003 0.720000 0.120586
vn 0.0000 -1.0000 0.0000
vn 0.0000 1.0000 -0.0000
vn 1.0000 0.0000 0.0000
vn -0.0000 -0.0000 1.0000
vn -1.0000 -0.0000 0.0000
vn 0.0000 0.0000 -1.0000
usemtl Material
s off
f 15//15 16//15 17//15 18//15
f 19//16 22//16 21//16 20//16
f 15//17 19//17 20//17 16//17
f 16//18 20//18 21//18 17//18
f 17//19 21//19 22//19 18//19
f 19//20 15//20 18//20 22//20
o trigger3_Cube.009
v 0.313003 0.700000 0.120586
v 0.313003 0.700000 0.220586
v 0.263003 0.700000 0.220586
v 0.263003 0.700000 0.120586
v 0.313003 0.720000 0.120586
v 0.313003 0.720000 0.220586
v 0.263003 0.720000 0.220586
v 0.263003 0.720000 0.120586
vn 0.0000 -1.0000 0.0000
vn 0.0000 1.0000 -0.0000
vn 1.0000 -0.0000 0.0000
vn -0.0000 -0.0000 1.0000
vn -1.0000 -0.0000 0.0000
vn 0.0000 0.0000 -1.0000
usemtl Material
s off
f 23//21 24//21 25//21 26//21
f 27//22 30//22 29//22 28//22
f 23//23 27//23 28//23 24//23
f 24//24 28//24 29//24 25//24
f 25//25 29//25 30//25 26//25
f 27//26 23//26 26//26 30//26
o trigger2_Cube.008
v 0.233003 0.700000 0.120586
v 0.233003 0.700000 0.220586
v 0.183003 0.700000 0.220586
v 0.183003 0.700000 0.120586
v 0.233003 0.720000 0.120586
v 0.233003 0.720000 0.220586
v 0.183003 0.720000 0.220586
v 0.183003 0.720000 0.120586
vn 0.0000 -1.0000 0.0000
vn 0.0000 1.0000 -0.0000
vn 1.0000 -0.0000 0.0000
vn -0.0000 -0.0000 1.0000
vn -1.0000 -0.0000 -0.0000
vn 0.0000 0.0000 -1.0000
usemtl Material
s off
f 31//27 32//27 33//27 34//27
f 35//28 38//28 37//28 36//28
f 31//29 35//29 36//29 32//29
f 32//30 36//30 37//30 33//30
f 33//31 37//31 38//31 34//31
f 35//32 31//32 34//32 38//32
o trigger1_Cube.007
v 0.153003 0.700000 0.120586
v 0.153003 0.700000 0.220586
v 0.103003 0.700000 0.220586
v 0.103003 0.700000 0.120586
v 0.153003 0.720000 0.120586
v 0.153003 0.720000 0.220586
v 0.103003 0.720000 0.220586
v 0.103003 0.720000 0.120586
vn 0.0000 -1.0000 0.0000
vn 0.0000 1.0000 -0.0000
vn 1.0000 0.0000 0.0000
vn -0.0000 -0.0000 1.0000
vn -1.0000 -0.0000 -0.0000
vn 0.0000 0.0000 -1.0000
usemtl Material
s off
f 39//33 40//33 41//33 42//33
f 43//34 46//34 45//34 44//34
f 39//35 43//35 44//35 40//35
f 40//36 44//36 45//36 41//36
f 41//37 45//37 46//37 42//37
f 43//38 39//38 42//38 46//38
o tabletop_Cube.005
v 1.000000 0.600000 0.000000
v 1.000000 0.600000 1.000000
v -0.000000 0.600000 1.000000
v 0.000000 0.600000 -0.000000
v 1.000000 0.700000 0.000000
v 1.000000 0.700000 1.000000
v -0.000000 0.700000 1.000000
v 0.000000 0.700000 0.000000
vn 0.0000 -1.0000 -0.0000
vn 0.0000 1.0000 0.0000
vn 1.0000 0.0000 0.0000
vn -0.0000 -0.0000 1.0000
vn -1.0000 -0.0000 -0.0000
vn 0.0000 0.0000 -1.0000
usemtl Material
s off
f 47//39 48//39 49//39 50//39
f 51//40 54//40 53//40 52//40
f 47//41 51//41 52//41 48//41
f 48//42 52//42 53//42 49//42
f 49//43 53//43 54//43 50//43
f 51//44 47//44 50//44 54//44
o leg4_Cube.003
v 1.000000 0.000000 0.000000
v 1.000000 0.000000 0.100000
v 0.900000 0.000000 0.100000
v 0.900000 0.000000 -0.000000
v 1.000000 0.600000 0.000000
v 1.000000 0.600000 0.100000
v 0.900000 0.600000 0.100000
v 0.900000 0.600000 0.000000
vn 0.0000 -1.0000 0.0000
vn 0.0000 1.0000 0.0000
vn 1.0000 -0.0000 0.0000
vn -0.0000 -0.0000 1.0000
vn -1.0000 0.0000 0.0000
vn 0.0000 0.0000 -1.0000
usemtl Material
s off
f 55//45 56//45 57//45 58//45
f 59//46 62//46 61//46 60//46
f 55//47 59//47 60//47 56//47
f 56//48 60//48 61//48 57//48
f 57//49 61//49 62//49 58//49
f 59//50 55//50 58//50 62//50
o leg3_Cube.002
v 1.000000 0.000000 0.900000
v 1.000000 0.000000 1.000000
v 0.900000 0.000000 1.000000
v 0.900000 0.000000 0.900000
v 1.000000 0.600000 0.900000
v 1.000000 0.600000 1.000000
v 0.900000 0.600000 1.000000
v 0.900000 0.600000 0.900000
vn 0.0000 -1.0000 0.0000
vn 0.0000 1.0000 0.0000
vn 1.0000 0.0000 0.0000
vn 0.0000 0.0000 1.0000
vn -1.0000 0.0000 0.0000
vn 0.0000 0.0000 -1.0000
usemtl Material
s off
f 63//51 64//51 65//51 66//51
f 67//52 70//52 69//52 68//52
f 63//53 67//53 68//53 64//53
f 64//54 68//54 69//54 65//54
f 65//55 69//55 70//55 66//55
f 67//56 63//56 66//56 70//56
o leg2_Cube.001
v 0.100000 0.000000 0.900000
v 0.100000 0.000000 1.000000
v -0.000000 0.000000 1.000000
v 0.000000 0.000000 0.900000
v 0.100000 0.600000 0.900000
v 0.100000 0.600000 1.000000
v -0.000000 0.600000 1.000000
v 0.000000 0.600000 0.900000
vn 0.0000 -1.0000 0.0000
vn 0.0000 1.0000 0.0000
vn 1.0000 0.0000 0.0000
vn 0.0000 0.0000 1.0000
vn -1.0000 -0.0000 -0.0000
vn 0.0000 0.0000 -1.0000
usemtl Material
s off
f 71//57 72//57 73//57 74//57
f 75//58 78//58 77//58 76//58
f 71//59 75//59 76//59 72//59
f 72//60 76//60 77//60 73//60
f 73//61 77//61 78//61 74//61
f 75//62 71//62 74//62 78//62
o leg1_Cube
v 0.100000 0.000000 0.000000
v 0.100000 0.000000 0.100000
v -0.000000 0.000000 0.100000
v 0.000000 0.000000 -0.000000
v 0.100000 0.600000 0.000000
v 0.100000 0.600000 0.100000
v -0.000000 0.600000 0.100000
v 0.000000 0.600000 0.000000
vn 0.0000 -1.0000 0.0000
vn 0.0000 1.0000 0.0000
vn 1.0000 0.0000 0.0000
vn -0.0000 -0.0000 1.0000
vn -1.0000 -0.0000 -0.0000
vn 0.0000 0.0000 -1.0000
usemtl Material
s off
f 79//63 80//63 81//63 82//63
f 83//64 86//64 85//64 84//64
f 79//65 83//65 84//65 80//65
f 80//66 84//66 85//66 81//66
f 81//67 85//67 86//67 82//67
f 83//68 79//68 82//68 86//68
