# Blender v2.78 (sub 0) OBJ File: 'wall_if_tablet.blend'
# www.blender.org
mtllib wall_if_tablet.mtl
o Cube
v 0.850000 0.150000 0.950000
v 0.850000 0.150000 1.000000
v 0.150000 0.150000 1.000000
v 0.150000 0.150000 0.950000
v 0.850000 0.850000 0.950000
v 0.850000 0.850000 1.000000
v 0.150000 0.850000 1.000000
v 0.150000 0.850000 0.950000
vt 1.0000 0.5000
vt 0.5000 0.0000
vt 1.0000 0.0000
vt 0.0000 0.0000
vt 0.5000 0.5000
vt 0.0000 0.5000
vt 0.5000 0.5000
vt 0.5000 0.0000
vt 0.1172 1.0000
vt 0.0781 0.5000
vt 0.0781 1.0000
vt 0.1172 0.5000
vt 0.1562 1.0000
vt 0.1172 1.0000
vt 0.0391 0.5000
vt 0.0781 1.0000
vt 0.0391 1.0000
vt 0.0391 0.5000
vt 0.0000 1.0000
vt 0.0391 1.0000
vt 0.1172 0.5000
vt 0.1562 0.5000
vt 0.0781 0.5000
vt 0.0000 0.5000
vn 0.0000 0.0000 1.0000
vn 0.0000 0.0000 -1.0000
vn 0.0000 -1.0000 0.0000
vn 0.0000 1.0000 -0.0000
vn 1.0000 -0.0000 0.0000
vn -1.0000 -0.0000 -0.0000
usemtl Material
s off
f 6/1/1 3/2/1 2/3/1
f 1/4/2 8/5/2 5/6/2
f 6/1/1 7/7/1 3/2/1
f 1/4/2 4/8/2 8/5/2
usemtl Material_NONE
f 2/9/3 4/10/3 1/11/3
f 8/12/4 6/13/4 5/14/4
f 5/15/5 2/16/5 1/17/5
f 7/18/6 4/19/6 3/20/6
f 2/9/3 3/21/3 4/10/3
f 8/12/4 7/22/4 6/13/4
f 5/15/5 6/23/5 2/16/5
f 7/18/6 8/24/6 4/19/6
